<?xml version="1.0" encoding="iso-8859-1"?>
<!-- Generator: Adobe Illustrator 19.0.0, SVG Export Plug-In . SVG Version: 6.00 Build 0)  -->
<svg version="1.1" id="Capa_1" xmlns="http://www.w3.org/2000/svg" xmlns:xlink="http://www.w3.org/1999/xlink" x="0px" y="0px"
	 viewBox="0 0 512 512" style="enable-background:new 0 0 512 512;" xml:space="preserve">
<g>
	<g>
		<g>
			<path d="M257,437c68.925,0,125-56.075,125-125s-56.075-125-125-125s-125,56.075-125,125S188.075,437,257,437z M257,227
				c41.35,0,75.881,29.686,83.444,68.861c-7.919,5.18-18.579,7.719-29.969,7.027c-11.877-0.725-25.059-4.645-41.483-12.336
				c-2.438-1.142-4.875-2.324-7.318-3.509c-14.437-7-30.799-14.934-49.599-15.935c-11.254-0.6-21.919,1.347-31.857,4.467
				C193.883,246.882,223.16,227,257,227z M209.947,311.052c10.739,0.572,22.172,6.115,34.275,11.983
				c2.604,1.264,5.204,2.523,7.806,3.741c13.302,6.229,33.579,14.668,56.011,16.037c2.104,0.128,4.19,0.192,6.263,0.192
				c7.915,0,15.582-0.936,22.851-2.747C325.476,373.275,293.964,397,257,397c-43.516,0-79.478-32.876-84.403-75.092
				C184.848,315.961,198.02,310.413,209.947,311.052z"/>
			<circle cx="382" cy="76" r="20"/>
			<path d="M412,0H100C66.916,0,40,26.916,40,60v392c0,33.084,26.916,60,60,60h312c33.084,0,60-26.916,60-60V60
				C472,26.916,445.084,0,412,0z M432,452c0,11.028-8.972,20-20,20H100c-11.028,0-20-8.972-20-20V152h352V452z M432,112H80V60
				c0-11.028,8.972-20,20-20h312c11.028,0,20,8.972,20,20V112z"/>
			<circle cx="311" cy="76" r="20"/>
		</g>
	</g>
</g>
<g>
</g>
<g>
</g>
<g>
</g>
<g>
</g>
<g>
</g>
<g>
</g>
<g>
</g>
<g>
</g>
<g>
</g>
<g>
</g>
<g>
</g>
<g>
</g>
<g>
</g>
<g>
</g>
<g>
</g>
</svg>
